# MagicaVoxel @ Ephtracy

# group
o 

# material
mtllib W2.mtl
usemtl palette

# normals
vn -1 0 0
vn 1 0 0
vn 0 0 1
vn 0 0 -1
vn 0 -1 0
vn 0 1 0

# texcoords
vt 0.931641 0.5
vt 0.970703 0.5
vt 0.982422 0.5

# verts
v -1 0.1 0.2
v -1 0.1 -0.2
v -1 0.2 0.1
v -1 0.2 -0.1
v -1 0.4 0.1
v -1 0.4 -0.1
v -1 0.5 0.2
v -1 0.5 -0.2
v -0.9 0 0.2
v -0.9 0 0.1
v -0.9 0 -2.98023e-08
v -0.9 0 -0.1
v -0.9 0 -0.2
v -0.9 0.1 0.3
v -0.9 0.1 0.2
v -0.9 0.1 0.1
v -0.9 0.1 -2.98023e-08
v -0.9 0.1 -0.1
v -0.9 0.1 -0.2
v -0.9 0.1 -0.3
v -0.9 0.2 0.3
v -0.9 0.2 0.2
v -0.9 0.2 -0.2
v -0.9 0.2 -0.3
v -0.9 0.3 0.3
v -0.9 0.3 0.2
v -0.9 0.3 -0.2
v -0.9 0.3 -0.3
v -0.9 0.4 0.3
v -0.9 0.4 0.2
v -0.9 0.4 -0.2
v -0.9 0.4 -0.3
v -0.9 0.5 0.3
v -0.9 0.5 0.2
v -0.9 0.5 0.1
v -0.9 0.5 -2.98023e-08
v -0.9 0.5 -0.1
v -0.9 0.5 -0.2
v -0.9 0.5 -0.3
v -0.9 0.6 0.2
v -0.9 0.6 0.1
v -0.9 0.6 -2.98023e-08
v -0.9 0.6 -0.1
v -0.9 0.6 -0.2
v 0.9 0 0.2
v 0.9 0 0.1
v 0.9 0 -2.98023e-08
v 0.9 0 -0.1
v 0.9 0 -0.2
v 0.9 0.1 0.3
v 0.9 0.1 0.2
v 0.9 0.1 0.1
v 0.9 0.1 -2.98023e-08
v 0.9 0.1 -0.1
v 0.9 0.1 -0.2
v 0.9 0.1 -0.3
v 0.9 0.2 0.3
v 0.9 0.2 0.2
v 0.9 0.2 -0.2
v 0.9 0.2 -0.3
v 0.9 0.3 0.3
v 0.9 0.3 0.2
v 0.9 0.3 -0.2
v 0.9 0.3 -0.3
v 0.9 0.4 0.3
v 0.9 0.4 0.2
v 0.9 0.4 -0.2
v 0.9 0.4 -0.3
v 0.9 0.5 0.3
v 0.9 0.5 0.2
v 0.9 0.5 0.1
v 0.9 0.5 -2.98023e-08
v 0.9 0.5 -0.1
v 0.9 0.5 -0.2
v 0.9 0.5 -0.3
v 0.9 0.6 0.2
v 0.9 0.6 0.1
v 0.9 0.6 -2.98023e-08
v 0.9 0.6 -0.1
v 0.9 0.6 -0.2
v 1 0.1 0.2
v 1 0.1 -0.2
v 1 0.2 0.1
v 1 0.2 -0.1
v 1 0.4 0.1
v 1 0.4 -0.1
v 1 0.5 0.2
v 1 0.5 -0.2
v -0.9 0.1 0.3
v -0.9 0.2 0.3
v -0.9 0.3 0.3
v -0.9 0.4 0.3
v -0.9 0.5 0.3
v 0.9 0.1 0.3
v 0.9 0.2 0.3
v 0.9 0.3 0.3
v 0.9 0.4 0.3
v 0.9 0.5 0.3
v -1 0.1 0.2
v -1 0.5 0.2
v -0.9 0 0.2
v -0.9 0.1 0.2
v -0.9 0.2 0.2
v -0.9 0.3 0.2
v -0.9 0.4 0.2
v -0.9 0.5 0.2
v -0.9 0.6 0.2
v 0.9 0 0.2
v 0.9 0.1 0.2
v 0.9 0.2 0.2
v 0.9 0.3 0.2
v 0.9 0.4 0.2
v 0.9 0.5 0.2
v 0.9 0.6 0.2
v 1 0.1 0.2
v 1 0.5 0.2
v -1 0.1 -0.2
v -1 0.5 -0.2
v -0.9 0 -0.2
v -0.9 0.1 -0.2
v -0.9 0.2 -0.2
v -0.9 0.3 -0.2
v -0.9 0.4 -0.2
v -0.9 0.5 -0.2
v -0.9 0.6 -0.2
v 0.9 0 -0.2
v 0.9 0.1 -0.2
v 0.9 0.2 -0.2
v 0.9 0.3 -0.2
v 0.9 0.4 -0.2
v 0.9 0.5 -0.2
v 0.9 0.6 -0.2
v 1 0.1 -0.2
v 1 0.5 -0.2
v -0.9 0.1 -0.3
v -0.9 0.2 -0.3
v -0.9 0.3 -0.3
v -0.9 0.4 -0.3
v -0.9 0.5 -0.3
v 0.9 0.1 -0.3
v 0.9 0.2 -0.3
v 0.9 0.3 -0.3
v 0.9 0.4 -0.3
v 0.9 0.5 -0.3
v -0.9 0 0.2
v 0.9 0 0.2
v -0.9 0 0.1
v 0.9 0 0.1
v -0.9 0 -2.98023e-08
v 0.9 0 -2.98023e-08
v -0.9 0 -0.1
v 0.9 0 -0.1
v -0.9 0 -0.2
v 0.9 0 -0.2
v -0.9 0.1 0.3
v 0.9 0.1 0.3
v -1 0.1 0.2
v -0.9 0.1 0.2
v 0.9 0.1 0.2
v 1 0.1 0.2
v -0.9 0.1 0.1
v 0.9 0.1 0.1
v -0.9 0.1 -2.98023e-08
v 0.9 0.1 -2.98023e-08
v -0.9 0.1 -0.1
v 0.9 0.1 -0.1
v -1 0.1 -0.2
v -0.9 0.1 -0.2
v 0.9 0.1 -0.2
v 1 0.1 -0.2
v -0.9 0.1 -0.3
v 0.9 0.1 -0.3
v -0.9 0.5 0.3
v 0.9 0.5 0.3
v -1 0.5 0.2
v -0.9 0.5 0.2
v 0.9 0.5 0.2
v 1 0.5 0.2
v -0.9 0.5 0.1
v 0.9 0.5 0.1
v -0.9 0.5 -2.98023e-08
v 0.9 0.5 -2.98023e-08
v -0.9 0.5 -0.1
v 0.9 0.5 -0.1
v -1 0.5 -0.2
v -0.9 0.5 -0.2
v 0.9 0.5 -0.2
v 1 0.5 -0.2
v -0.9 0.5 -0.3
v 0.9 0.5 -0.3
v -0.9 0.6 0.2
v 0.9 0.6 0.2
v -0.9 0.6 0.1
v 0.9 0.6 0.1
v -0.9 0.6 -2.98023e-08
v 0.9 0.6 -2.98023e-08
v -0.9 0.6 -0.1
v 0.9 0.6 -0.1
v -0.9 0.6 -0.2
v 0.9 0.6 -0.2

# faces
f 3/3/1 2/3/1 1/3/1
f 4/3/1 2/3/1 3/3/1
f 5/3/1 3/3/1 1/3/1
f 5/1/1 4/1/1 3/1/1
f 6/3/1 2/3/1 4/3/1
f 6/1/1 4/1/1 5/1/1
f 7/3/1 5/3/1 1/3/1
f 7/3/1 6/3/1 5/3/1
f 8/3/1 2/3/1 6/3/1
f 8/3/1 6/3/1 7/3/1
f 15/3/1 10/3/1 9/3/1
f 16/2/1 11/2/1 10/2/1
f 16/3/1 10/3/1 15/3/1
f 17/3/1 12/3/1 11/3/1
f 17/2/1 11/2/1 16/2/1
f 18/2/1 13/2/1 12/2/1
f 18/3/1 12/3/1 17/3/1
f 19/2/1 13/2/1 18/2/1
f 21/2/1 15/2/1 14/2/1
f 22/2/1 15/2/1 21/2/1
f 23/3/1 20/3/1 19/3/1
f 24/3/1 20/3/1 23/3/1
f 25/3/1 22/3/1 21/3/1
f 26/3/1 22/3/1 25/3/1
f 27/2/1 24/2/1 23/2/1
f 28/2/1 24/2/1 27/2/1
f 29/2/1 26/2/1 25/2/1
f 30/2/1 26/2/1 29/2/1
f 31/3/1 28/3/1 27/3/1
f 32/3/1 28/3/1 31/3/1
f 33/3/1 30/3/1 29/3/1
f 34/3/1 30/3/1 33/3/1
f 38/2/1 32/2/1 31/2/1
f 39/2/1 32/2/1 38/2/1
f 40/2/1 35/2/1 34/2/1
f 41/3/1 36/3/1 35/3/1
f 41/2/1 35/2/1 40/2/1
f 42/2/1 37/2/1 36/2/1
f 42/3/1 36/3/1 41/3/1
f 43/3/1 38/3/1 37/3/1
f 43/2/1 37/2/1 42/2/1
f 44/3/1 38/3/1 43/3/1
f 45/3/2 46/3/2 51/3/2
f 46/2/2 47/2/2 52/2/2
f 51/3/2 46/3/2 52/3/2
f 47/3/2 48/3/2 53/3/2
f 52/2/2 47/2/2 53/2/2
f 48/2/2 49/2/2 54/2/2
f 53/3/2 48/3/2 54/3/2
f 54/2/2 49/2/2 55/2/2
f 50/2/2 51/2/2 57/2/2
f 57/2/2 51/2/2 58/2/2
f 55/3/2 56/3/2 59/3/2
f 59/3/2 56/3/2 60/3/2
f 57/3/2 58/3/2 61/3/2
f 61/3/2 58/3/2 62/3/2
f 59/2/2 60/2/2 63/2/2
f 63/2/2 60/2/2 64/2/2
f 61/2/2 62/2/2 65/2/2
f 65/2/2 62/2/2 66/2/2
f 63/3/2 64/3/2 67/3/2
f 67/3/2 64/3/2 68/3/2
f 65/3/2 66/3/2 69/3/2
f 69/3/2 66/3/2 70/3/2
f 67/2/2 68/2/2 74/2/2
f 74/2/2 68/2/2 75/2/2
f 70/2/2 71/2/2 76/2/2
f 71/3/2 72/3/2 77/3/2
f 76/2/2 71/2/2 77/2/2
f 72/2/2 73/2/2 78/2/2
f 77/3/2 72/3/2 78/3/2
f 73/3/2 74/3/2 79/3/2
f 78/2/2 73/2/2 79/2/2
f 79/3/2 74/3/2 80/3/2
f 81/3/2 82/3/2 83/3/2
f 83/3/2 82/3/2 84/3/2
f 81/3/2 83/3/2 85/3/2
f 83/1/2 84/1/2 85/1/2
f 84/3/2 82/3/2 86/3/2
f 85/1/2 84/1/2 86/1/2
f 81/3/2 85/3/2 87/3/2
f 85/3/2 86/3/2 87/3/2
f 86/3/2 82/3/2 88/3/2
f 87/3/2 86/3/2 88/3/2
f 94/2/3 90/2/3 89/2/3
f 95/3/3 91/3/3 90/3/3
f 95/2/3 90/2/3 94/2/3
f 96/2/3 92/2/3 91/2/3
f 96/3/3 91/3/3 95/3/3
f 97/3/3 93/3/3 92/3/3
f 97/2/3 92/2/3 96/2/3
f 98/3/3 93/3/3 97/3/3
f 102/3/3 100/3/3 99/3/3
f 103/3/3 100/3/3 102/3/3
f 104/3/3 100/3/3 103/3/3
f 105/3/3 100/3/3 104/3/3
f 106/3/3 100/3/3 105/3/3
f 108/3/3 102/3/3 101/3/3
f 109/3/3 102/3/3 108/3/3
f 113/2/3 107/2/3 106/2/3
f 114/2/3 107/2/3 113/2/3
f 115/3/3 112/3/3 111/3/3
f 115/3/3 113/3/3 112/3/3
f 115/3/3 110/3/3 109/3/3
f 115/3/3 111/3/3 110/3/3
f 116/3/3 113/3/3 115/3/3
f 117/3/4 118/3/4 120/3/4
f 120/3/4 118/3/4 121/3/4
f 121/3/4 118/3/4 122/3/4
f 122/3/4 118/3/4 123/3/4
f 123/3/4 118/3/4 124/3/4
f 119/2/4 120/2/4 126/2/4
f 126/2/4 120/2/4 127/2/4
f 124/3/4 125/3/4 131/3/4
f 131/3/4 125/3/4 132/3/4
f 129/3/4 130/3/4 133/3/4
f 130/3/4 131/3/4 133/3/4
f 127/3/4 128/3/4 133/3/4
f 128/3/4 129/3/4 133/3/4
f 133/3/4 131/3/4 134/3/4
f 135/3/4 136/3/4 140/3/4
f 136/2/4 137/2/4 141/2/4
f 140/3/4 136/3/4 141/3/4
f 137/3/4 138/3/4 142/3/4
f 141/2/4 137/2/4 142/2/4
f 138/2/4 139/2/4 143/2/4
f 142/3/4 138/3/4 143/3/4
f 143/2/4 139/2/4 144/2/4
f 147/3/5 146/3/5 145/3/5
f 148/3/5 146/3/5 147/3/5
f 149/2/5 148/2/5 147/2/5
f 150/2/5 148/2/5 149/2/5
f 151/3/5 150/3/5 149/3/5
f 152/3/5 150/3/5 151/3/5
f 153/2/5 152/2/5 151/2/5
f 154/2/5 152/2/5 153/2/5
f 158/2/5 156/2/5 155/2/5
f 159/2/5 156/2/5 158/2/5
f 161/3/5 158/3/5 157/3/5
f 162/3/5 160/3/5 159/3/5
f 163/3/5 161/3/5 157/3/5
f 164/3/5 160/3/5 162/3/5
f 165/3/5 163/3/5 157/3/5
f 166/3/5 160/3/5 164/3/5
f 167/3/5 165/3/5 157/3/5
f 168/3/5 165/3/5 167/3/5
f 169/3/5 160/3/5 166/3/5
f 170/3/5 160/3/5 169/3/5
f 171/3/5 169/3/5 168/3/5
f 172/3/5 169/3/5 171/3/5
f 173/3/6 174/3/6 176/3/6
f 176/3/6 174/3/6 177/3/6
f 175/3/6 176/3/6 179/3/6
f 177/3/6 178/3/6 180/3/6
f 175/3/6 179/3/6 181/3/6
f 180/3/6 178/3/6 182/3/6
f 175/3/6 181/3/6 183/3/6
f 182/3/6 178/3/6 184/3/6
f 175/3/6 183/3/6 185/3/6
f 185/3/6 183/3/6 186/3/6
f 184/3/6 178/3/6 187/3/6
f 187/3/6 178/3/6 188/3/6
f 186/2/6 187/2/6 189/2/6
f 189/2/6 187/2/6 190/2/6
f 191/2/6 192/2/6 193/2/6
f 193/2/6 192/2/6 194/2/6
f 193/3/6 194/3/6 195/3/6
f 195/3/6 194/3/6 196/3/6
f 195/2/6 196/2/6 197/2/6
f 197/2/6 196/2/6 198/2/6
f 197/3/6 198/3/6 199/3/6
f 199/3/6 198/3/6 200/3/6
